HIERARCHY
ROOT Hips
{
  OFFSET 0.000000 0.000000 0.000000
  CHANNELS 6 Xposition Yposition Zposition Zrotation Xrotation Yrotation
  JOINT Spine1
  {
    OFFSET 0.000000 0.000000 0.000000
    CHANNELS 3 Zrotation Xrotation Yrotation
    JOINT Spine2
    {
      OFFSET -0.000000 4.400000 -0.396350
      CHANNELS 3 Zrotation Xrotation Yrotation
      JOINT Chest
      {
        OFFSET 0.000000 0.000000 0.000000
        CHANNELS 3 Zrotation Xrotation Yrotation
        JOINT LeftShoulder
        {
          OFFSET 10.022000 24.778000 0.395630
          CHANNELS 3 Zrotation Xrotation Yrotation
          JOINT LeftArm
          {
            OFFSET 4.424000 -11.703100 -0.000000
            CHANNELS 3 Zrotation Xrotation Yrotation
            JOINT LeftForeArm
            {
              OFFSET 0.000000 -8.051800 1.578300
              CHANNELS 3 Zrotation Xrotation Yrotation
              JOINT LeftHand
              {
                OFFSET 0.188791 -1.000000 18.400000
                CHANNELS 3 Zrotation Xrotation Yrotation
                End Site
                {
                  OFFSET 0 0 1
                }
              }
            }
          }
        }
        JOINT RightShoulder
        {
          OFFSET -10.021000 24.778000 0.395630
          CHANNELS 3 Zrotation Xrotation Yrotation
          JOINT RightArm
          {
            OFFSET -4.424000 -11.703100 -0.000000
            CHANNELS 3 Zrotation Xrotation Yrotation
            JOINT RightForeArm
            {
              OFFSET 0.000000 -8.051800 1.578300
              CHANNELS 3 Zrotation Xrotation Yrotation
              JOINT RightHand
              {
                OFFSET -0.188791 -1.000000 18.400000
                CHANNELS 3 Zrotation Xrotation Yrotation
                End Site
                {
                  OFFSET 0 0 1
                }
              }
            }
          }
        }
      }
    }
  }
  JOINT LeftLeg
  {
    OFFSET 11.645200 -25.728500 2.500100
    CHANNELS 3 Zrotation Xrotation Yrotation
    JOINT LeftShin
    {
      OFFSET 0.214890 -17.734000 -7.827300
      CHANNELS 3 Zrotation Xrotation Yrotation
      JOINT LeftFoot
      {
        OFFSET -0.009445 -31.756800 -0.000000
        CHANNELS 3 Zrotation Xrotation Yrotation
        JOINT LeftToeBase
        {
          OFFSET 0.000000 -3.500000 14.000000
          CHANNELS 3 Zrotation Xrotation Yrotation
          End Site
          {
            OFFSET 0 0 1
          }
        }
      }
    }
  }
  JOINT RightLeg
  {
    OFFSET -11.645200 -25.728500 2.500100
    CHANNELS 3 Zrotation Xrotation Yrotation
    JOINT RightShin
    {
      OFFSET -0.214890 -17.734000 -7.827300
      CHANNELS 3 Zrotation Xrotation Yrotation
      JOINT RightFoot
      {
        OFFSET 0.009444 -31.756800 -0.000000
        CHANNELS 3 Zrotation Xrotation Yrotation
        JOINT RightToeBase
        {
          OFFSET 0.000000 -3.500000 14.000000
          CHANNELS 3 Zrotation Xrotation Yrotation
          End Site
          {
            OFFSET 0 0 1
          }
        }
      }
    }
  }
}
MOTION
Frames: 14
Frame Time: 0.033333333
5.068553 76.931648 234.715088 3.186610 -10.370827 -2.852675 -0.000000 -0.000000 -1.632069 -1.840883 0.000000 0.000000 0.000000 15.286126 0.000000 16.001939 -6.453772 -0.011493 -2.708291 0.000000 -26.988299 -0.000001 66.523982 0.000001 11.438380 -3.156339 -2.780867 -16.002533 -3.493678 0.011441 1.344384 0.000000 30.108646 0.000004 69.023316 -0.000004 3.387996 6.545024 -7.619575 -10.321535 1.801933 11.838495 0.000000 19.378401 -0.000000 7.782654 -12.393885 1.680268 0.453003 0.071326 -7.194609 -10.166463 -26.400125 -19.484197 -0.000001 56.177344 0.000001 -3.092902 -12.803616 -0.686051 -2.428277 -6.558745 19.584902
5.184618 76.565765 237.973160 3.690147 -10.180797 -2.727254 -0.000000 -0.000000 -2.574243 -2.051911 -0.000000 -0.000000 0.000000 14.970360 0.000000 16.001805 -7.111963 -0.011508 -2.251061 -0.000000 -26.886422 0.000002 64.061680 -0.000002 10.725802 -2.690641 -1.801642 -16.002769 -2.313069 0.011429 0.916658 0.000000 30.039256 -0.000003 69.404543 0.000003 3.988501 5.877675 -6.838157 -11.305506 5.270319 12.393535 -0.000000 17.451295 0.000000 7.971270 -13.926877 1.930298 0.091913 -0.228931 -7.780340 -9.814692 -27.544181 -19.678291 0.000001 43.883006 0.000000 -1.853677 -11.452445 -0.368179 -4.760402 4.957871 20.552195
5.211571 76.053017 241.123108 4.676946 -10.089952 -2.633877 0.000000 0.000000 -3.476948 -2.657334 0.000000 -0.000000 -0.000000 15.171243 -0.000000 16.001639 -7.935362 -0.011530 -1.949252 0.000000 -27.849198 -0.000003 62.123623 0.000003 11.308742 -4.112787 -2.518345 -16.002976 -1.275547 0.011423 0.872189 0.000000 29.503373 0.000001 68.810059 -0.000001 2.995198 7.092541 -7.888495 -12.301015 7.778725 12.723713 -0.000000 17.389296 0.000001 7.641365 -16.129697 2.134556 -0.056990 -0.593696 -8.032585 -9.498644 -27.720536 -19.256058 -0.000001 31.338284 0.000001 0.117071 -8.938307 0.018189 -7.895656 14.599807 21.487671
5.125315 75.453773 244.271133 5.049818 -9.672835 -1.940255 0.000000 -0.000000 -4.052433 -3.109822 0.000000 -0.000000 -0.000000 15.212532 -0.000000 16.001550 -8.368228 -0.011543 -1.782919 -0.000000 -28.485463 0.000002 60.899624 -0.000002 11.837741 -5.198428 -2.377791 -16.003021 -1.056034 0.011421 0.906295 0.000000 29.263654 0.000003 69.552861 -0.000004 1.791864 8.210097 -8.443711 -12.747839 9.689887 13.135134 0.000000 18.049451 0.000000 7.512093 -18.088734 2.344574 -0.160378 -1.600666 -9.014429 -8.502330 -27.598145 -18.851948 -0.000000 19.516316 0.000001 1.822768 -8.412221 0.266747 -10.991200 24.976282 22.332251
5.001692 74.821266 247.558472 5.092043 -9.343205 -1.150480 -0.000000 -0.000000 -4.778636 -3.039475 0.000000 -0.000000 0.000000 14.994583 -0.000000 16.001481 -8.714718 -0.011553 -2.003239 0.000000 -28.657495 0.000000 60.267992 -0.000000 12.607215 -4.785882 -1.671282 -16.003056 -0.870801 0.011421 1.147730 0.000000 28.883436 -0.000002 70.209103 0.000002 1.015210 8.472455 -8.184629 -12.475889 10.688515 13.157759 -0.000000 19.704053 0.000000 7.106584 -20.449648 2.494163 -0.123400 -2.083923 -9.859432 -7.581502 -26.964394 -17.982010 -0.000000 12.732298 0.000000 2.444922 -9.612478 0.408503 -12.274711 31.885450 22.192206
4.878639 74.183777 250.962021 4.584241 -8.930935 -0.578332 0.000000 -0.000000 -5.700844 -2.164753 0.000000 -0.000000 0.000000 14.590463 -0.000000 16.001443 -8.898623 -0.011559 -2.619916 -0.000000 -28.730422 -0.000003 60.904654 0.000003 14.218612 -5.001763 -1.229083 -16.003086 -0.727556 0.011421 1.190138 -0.000000 28.713408 0.000001 71.149518 -0.000002 0.458730 8.613331 -8.082442 -11.353614 11.745358 13.353506 -0.000000 22.385520 -0.000000 6.409699 -23.382026 2.552727 -0.159645 -3.126263 -10.764640 -6.366798 -27.362745 -17.216579 -0.000000 13.747963 0.000000 1.902018 -9.996327 0.330280 -11.832807 31.241181 20.730171
4.654170 73.651413 254.487396 2.884745 -8.212690 0.022258 -0.000000 -0.000000 -6.747157 0.006864 -0.000000 -0.000000 0.000000 14.195295 -0.000000 16.001488 -8.677093 -0.011553 -3.852565 0.000000 -28.534848 0.000002 62.693703 -0.000002 15.616265 -4.576490 -0.848604 -16.003005 -1.136905 0.011422 1.469456 0.000000 28.127655 0.000003 72.279645 -0.000003 0.464314 8.400921 -7.840208 -8.267806 12.072650 12.565958 -0.000000 26.686131 -0.000000 5.152671 -26.414997 2.297234 -0.255131 -5.058930 -11.028800 -3.623467 -28.357514 -16.818046 0.000000 19.195664 -0.000000 -0.542664 -7.718650 -0.072887 -9.563881 23.731305 18.214640
4.073994 73.201599 257.487732 0.543003 -7.536516 0.517085 -0.000000 -0.000000 -7.073752 2.301252 -0.000000 0.000000 -0.000000 13.794461 0.000000 16.001501 -8.628011 -0.011550 -4.267237 -0.000000 -28.317273 0.000000 63.445173 0.000001 15.758204 -3.681282 0.286736 -16.002926 -1.530051 0.011424 1.818333 0.000000 28.380385 0.000002 72.938270 -0.000002 1.357812 7.704151 -7.793475 -3.953905 11.607719 10.749073 0.000000 33.356958 0.000000 4.390636 -29.785570 2.184293 -1.154070 -8.113601 -10.351440 -0.910242 -30.576288 -15.863892 0.000000 25.012655 -0.000000 -3.468143 -4.376506 -0.264977 -6.231553 16.285438 14.935170
3.466458 72.963005 260.298218 -1.258287 -7.364547 0.579024 -0.000000 -0.000001 -6.844262 3.935841 0.000000 -0.000000 0.000000 13.380602 -0.000000 16.001539 -8.421664 -0.011544 -4.424346 -0.000000 -28.420704 0.000002 64.542124 -0.000002 15.815691 -3.395032 1.340127 -16.002808 -2.124921 0.011428 2.128472 0.000000 28.702153 -0.000001 73.594684 0.000001 2.057850 7.319132 -7.943295 -0.235014 10.385050 9.706295 -0.000000 41.428502 0.000000 4.280245 -31.419278 2.234305 -2.591670 -13.188800 -9.996587 1.208769 -30.771253 -15.057546 0.000000 30.287845 -0.000000 -5.606193 -3.600565 -0.353194 -3.655375 10.377163 12.896936
3.066429 73.746796 263.767517 -2.165195 -7.691925 0.351497 -0.000000 0.000000 -6.281015 4.588667 0.000000 0.000000 0.000000 13.484778 -0.000000 16.001723 -7.527435 -0.011519 -4.582625 0.000000 -28.696967 0.000000 65.460051 -0.000000 16.089881 -3.175169 1.900945 -16.002677 -2.772611 0.011433 2.530049 -0.000000 29.173049 -0.000003 73.311019 0.000003 2.498560 7.230896 -7.650769 3.013099 6.235153 9.533881 0.000000 54.714036 -0.000000 2.577210 -24.367143 1.063906 -2.946483 -28.777080 -10.570661 2.794236 -28.486050 -14.263123 0.000000 32.377620 -0.000000 -6.811886 -4.473075 -0.533765 -2.185272 7.233883 12.033285
2.478700 74.914207 267.418640 -2.792183 -8.257731 0.436173 0.000000 -0.000000 -5.292085 4.482498 -0.000000 -0.000000 0.000000 13.983064 -0.000000 16.001972 -6.286330 -0.011489 -4.739832 0.000000 -29.017504 -0.000002 65.906902 0.000001 16.309459 -4.599116 -0.096684 -16.002610 -3.109093 0.011437 3.009811 -0.000000 29.364161 -0.000006 70.838604 0.000006 2.178253 9.670327 -8.145368 6.727357 -1.259657 9.348541 0.000000 73.118664 -0.000000 0.700336 -6.785802 0.082754 -4.691485 -56.278304 -13.947311 4.198723 -24.043261 -13.554308 -0.000000 30.961025 0.000000 -8.094105 -5.435148 -0.771761 -0.448683 5.747738 11.381958
1.911499 75.493797 270.557922 -3.104501 -8.797072 0.527806 0.000000 0.000000 -4.600537 4.596157 0.000000 -0.000000 -0.000000 14.792978 -0.000000 16.002069 -5.807505 -0.011478 -4.339152 0.000000 -29.195317 -0.000001 65.803262 0.000001 16.997981 -5.356472 -1.212720 -16.002442 -3.942491 0.011447 2.829952 0.000000 29.870855 -0.000001 69.494474 0.000001 1.749495 10.681165 -8.742376 9.041928 -7.944653 10.229097 0.000003 82.023326 -0.000003 0.916863 -3.510193 0.056140 -6.549455 -60.923672 -16.632413 5.196674 -20.514029 -13.711511 0.000000 29.977933 0.000000 -8.591079 -6.482232 -0.977131 -0.057135 4.686325 11.462571
1.494136 76.018677 273.676880 -3.098239 -9.519020 0.753063 -0.000000 0.000000 -3.345491 4.621695 -0.000000 0.000000 0.000000 15.554084 -0.000000 16.002173 -5.291824 -0.011469 -3.876634 -0.000000 -29.234256 0.000001 65.614866 -0.000000 16.742277 -4.662975 -1.547210 -16.002184 -5.242696 0.011468 2.491367 0.000000 30.152635 -0.000002 68.506927 0.000002 1.447641 10.584024 -8.687971 9.756722 -13.390824 11.287528 0.000007 85.112770 -0.000008 1.367338 -6.043432 0.143984 -4.747509 -55.350038 -15.533424 5.872475 -16.723651 -13.762467 0.000000 28.614706 0.000000 -8.885323 -7.831211 -1.220287 0.240120 4.246047 11.394095
1.105725 76.502090 276.950226 -2.920597 -10.171712 1.059604 0.000000 0.000000 -2.169375 4.439421 -0.000000 0.000000 0.000000 16.314342 -0.000000 16.002341 -4.453629 -0.011454 -3.416691 -0.000000 -29.483954 0.000001 65.362403 -0.000000 17.130345 -4.909313 -1.998043 -16.001911 -6.594134 0.011496 1.932723 -0.000000 31.235679 0.000001 67.742298 -0.000002 1.259968 10.760091 -8.581955 9.874055 -17.662605 12.580494 0.000003 83.820269 -0.000003 2.176555 -9.270219 0.350787 -3.087120 -46.000025 -14.563725 6.448677 -12.394847 -13.457519 0.000000 26.333751 0.000000 -8.933814 -8.831649 -1.382580 0.531736 3.812061 10.926329
